<?xml version="1.0" encoding="UTF-8"?>
<svg xmlns="http://www.w3.org/2000/svg" version="1.1" width="300" height="300" viewBox="0 0 300 300"><rect x="0" y="0" width="300" height="300" fill="#ffffff"/><g transform="scale(13.043)"><g transform="translate(1,1)"><path fill-rule="evenodd" d="M9 0L9 1L8 1L8 7L9 7L9 5L10 5L10 7L11 7L11 4L9 4L9 3L10 3L10 1L11 1L11 0ZM12 0L12 3L13 3L13 0ZM12 4L12 8L11 8L11 12L10 12L10 14L11 14L11 13L12 13L12 14L13 14L13 15L10 15L10 16L9 16L9 12L8 12L8 16L9 16L9 18L8 18L8 19L10 19L10 20L9 20L9 21L12 21L12 19L13 19L13 21L14 21L14 20L15 20L15 21L21 21L21 20L20 20L20 19L21 19L21 18L19 18L19 17L21 17L21 16L20 16L20 14L21 14L21 12L20 12L20 8L15 8L15 13L14 13L14 14L13 14L13 12L12 12L12 11L14 11L14 10L12 10L12 8L13 8L13 9L14 9L14 8L13 8L13 4ZM2 8L2 9L0 9L0 13L5 13L5 12L4 12L4 11L10 11L10 10L9 10L9 9L10 9L10 8L5 8L5 9L3 9L3 8ZM2 9L2 11L1 11L1 12L2 12L2 11L3 11L3 9ZM5 9L5 10L8 10L8 9ZM16 9L16 10L17 10L17 11L16 11L16 12L17 12L17 13L15 13L15 14L14 14L14 15L15 15L15 16L14 16L14 17L13 17L13 16L12 16L12 17L11 17L11 16L10 16L10 17L11 17L11 18L12 18L12 17L13 17L13 19L14 19L14 18L15 18L15 17L16 17L16 18L17 18L17 16L19 16L19 15L17 15L17 14L18 14L18 13L20 13L20 12L19 12L19 11L18 11L18 10L19 10L19 9L18 9L18 10L17 10L17 9ZM17 11L17 12L18 12L18 11ZM6 12L6 13L7 13L7 12ZM16 15L16 16L17 16L17 15ZM18 18L18 19L19 19L19 18ZM16 19L16 20L17 20L17 19ZM0 0L0 7L7 7L7 0ZM1 1L1 6L6 6L6 1ZM2 2L2 5L5 5L5 2ZM14 0L14 7L21 7L21 0ZM15 1L15 6L20 6L20 1ZM16 2L16 5L19 5L19 2ZM0 14L0 21L7 21L7 14ZM1 15L1 20L6 20L6 15ZM2 16L2 19L5 19L5 16Z" fill="#000000"/></g></g></svg>
