<?xml version="1.0" encoding="UTF-8"?>
<svg xmlns="http://www.w3.org/2000/svg" version="1.1" width="300" height="300" viewBox="0 0 300 300"><rect x="0" y="0" width="300" height="300" fill="#ffffff"/><g transform="scale(13.043)"><g transform="translate(1,1)"><path fill-rule="evenodd" d="M9 0L9 1L10 1L10 0ZM11 0L11 2L12 2L12 4L11 4L11 3L10 3L10 2L8 2L8 4L9 4L9 5L10 5L10 7L9 7L9 6L8 6L8 7L9 7L9 9L8 9L8 8L6 8L6 9L7 9L7 10L6 10L6 11L8 11L8 15L9 15L9 16L8 16L8 18L10 18L10 19L11 19L11 20L15 20L15 21L17 21L17 20L18 20L18 21L20 21L20 20L21 20L21 18L19 18L19 19L20 19L20 20L18 20L18 18L17 18L17 17L19 17L19 16L20 16L20 17L21 17L21 9L19 9L19 8L17 8L17 9L14 9L14 10L13 10L13 11L15 11L15 12L12 12L12 11L11 11L11 10L9 10L9 9L10 9L10 7L11 7L11 5L13 5L13 1L12 1L12 0ZM9 3L9 4L10 4L10 3ZM12 6L12 8L13 8L13 6ZM3 8L3 9L4 9L4 10L5 10L5 8ZM0 9L0 10L2 10L2 11L3 11L3 13L5 13L5 11L3 11L3 10L2 10L2 9ZM18 9L18 10L19 10L19 9ZM8 10L8 11L9 11L9 12L11 12L11 11L9 11L9 10ZM16 10L16 11L17 11L17 12L18 12L18 14L17 14L17 13L15 13L15 17L14 17L14 14L13 14L13 16L12 16L12 14L11 14L11 16L9 16L9 17L11 17L11 19L15 19L15 17L16 17L16 16L18 16L18 14L19 14L19 11L17 11L17 10ZM1 12L1 13L2 13L2 12ZM6 12L6 13L7 13L7 12ZM9 14L9 15L10 15L10 14ZM12 17L12 18L14 18L14 17ZM16 19L16 20L17 20L17 19ZM9 20L9 21L10 21L10 20ZM0 0L0 7L7 7L7 0ZM1 1L1 6L6 6L6 1ZM2 2L2 5L5 5L5 2ZM14 0L14 7L21 7L21 0ZM15 1L15 6L20 6L20 1ZM16 2L16 5L19 5L19 2ZM0 14L0 21L7 21L7 14ZM1 15L1 20L6 20L6 15ZM2 16L2 19L5 19L5 16Z" fill="#000000"/></g></g></svg>
