<?xml version="1.0" encoding="UTF-8"?>
<svg xmlns="http://www.w3.org/2000/svg" version="1.1" width="300" height="300" viewBox="0 0 300 300"><rect x="0" y="0" width="300" height="300" fill="#ffffff"/><g transform="scale(13.043)"><g transform="translate(1,1)"><path fill-rule="evenodd" d="M9 0L9 1L8 1L8 7L9 7L9 6L10 6L10 7L11 7L11 8L10 8L10 9L9 9L9 8L5 8L5 9L3 9L3 8L2 8L2 13L4 13L4 12L5 12L5 13L8 13L8 16L9 16L9 13L10 13L10 12L11 12L11 13L12 13L12 15L10 15L10 17L9 17L9 18L8 18L8 19L10 19L10 20L9 20L9 21L12 21L12 20L13 20L13 19L14 19L14 21L21 21L21 20L20 20L20 19L21 19L21 18L19 18L19 17L21 17L21 16L20 16L20 14L21 14L21 13L20 13L20 12L19 12L19 11L17 11L17 10L16 10L16 9L18 9L18 10L20 10L20 11L21 11L21 9L20 9L20 8L15 8L15 9L14 9L14 8L13 8L13 10L12 10L12 12L11 12L11 10L10 10L10 9L11 9L11 8L12 8L12 7L13 7L13 6L12 6L12 7L11 7L11 6L10 6L10 5L11 5L11 4L12 4L12 5L13 5L13 2L11 2L11 3L10 3L10 1L11 1L11 0ZM12 0L12 1L13 1L13 0ZM9 4L9 5L10 5L10 4ZM6 9L6 10L3 10L3 12L4 12L4 11L6 11L6 12L9 12L9 11L10 11L10 10L9 10L9 9L8 9L8 10L7 10L7 9ZM6 10L6 11L7 11L7 10ZM13 10L13 12L14 12L14 10ZM16 11L16 12L17 12L17 11ZM0 12L0 13L1 13L1 12ZM13 13L13 14L14 14L14 16L13 16L13 15L12 15L12 16L11 16L11 17L10 17L10 18L12 18L12 19L13 19L13 18L14 18L14 19L15 19L15 17L16 17L16 18L17 18L17 16L19 16L19 15L17 15L17 14L19 14L19 13L15 13L15 14L14 14L14 13ZM16 15L16 16L17 16L17 15ZM12 16L12 17L13 17L13 16ZM18 18L18 19L19 19L19 18ZM16 19L16 20L17 20L17 19ZM0 0L0 7L7 7L7 0ZM1 1L1 6L6 6L6 1ZM2 2L2 5L5 5L5 2ZM14 0L14 7L21 7L21 0ZM15 1L15 6L20 6L20 1ZM16 2L16 5L19 5L19 2ZM0 14L0 21L7 21L7 14ZM1 15L1 20L6 20L6 15ZM2 16L2 19L5 19L5 16Z" fill="#000000"/></g></g></svg>
