<?xml version="1.0" encoding="UTF-8"?>
<svg xmlns="http://www.w3.org/2000/svg" version="1.1" width="300" height="300" viewBox="0 0 300 300"><rect x="0" y="0" width="300" height="300" fill="#ffffff"/><g transform="scale(13.043)"><g transform="translate(1,1)"><path fill-rule="evenodd" d="M11 0L11 1L12 1L12 2L11 2L11 3L10 3L10 2L9 2L9 1L8 1L8 2L9 2L9 3L10 3L10 4L9 4L9 5L8 5L8 8L4 8L4 9L3 9L3 10L2 10L2 11L1 11L1 12L0 12L0 13L3 13L3 10L4 10L4 13L5 13L5 12L6 12L6 13L7 13L7 12L8 12L8 17L10 17L10 19L9 19L9 21L12 21L12 20L10 20L10 19L11 19L11 18L12 18L12 19L13 19L13 21L15 21L15 20L14 20L14 19L16 19L16 20L17 20L17 19L18 19L18 21L21 21L21 20L20 20L20 19L19 19L19 18L21 18L21 16L20 16L20 15L21 15L21 11L20 11L20 12L18 12L18 11L19 11L19 10L18 10L18 9L17 9L17 10L16 10L16 8L14 8L14 10L13 10L13 9L12 9L12 11L10 11L10 10L11 10L11 8L13 8L13 1L12 1L12 0ZM11 3L11 4L12 4L12 3ZM9 6L9 8L8 8L8 9L6 9L6 10L8 10L8 9L10 9L10 6ZM11 6L11 7L12 7L12 6ZM19 8L19 9L20 9L20 8ZM0 9L0 10L1 10L1 9ZM4 9L4 10L5 10L5 9ZM6 11L6 12L7 12L7 11ZM8 11L8 12L9 12L9 14L10 14L10 15L11 15L11 16L10 16L10 17L11 17L11 16L13 16L13 18L15 18L15 16L14 16L14 15L16 15L16 16L17 16L17 17L16 17L16 18L17 18L17 17L18 17L18 18L19 18L19 17L18 17L18 16L19 16L19 15L20 15L20 13L18 13L18 16L17 16L17 12L16 12L16 11L15 11L15 12L14 12L14 11L12 11L12 13L11 13L11 12L9 12L9 11ZM10 13L10 14L11 14L11 13ZM0 0L0 7L7 7L7 0ZM1 1L1 6L6 6L6 1ZM2 2L2 5L5 5L5 2ZM14 0L14 7L21 7L21 0ZM15 1L15 6L20 6L20 1ZM16 2L16 5L19 5L19 2ZM0 14L0 21L7 21L7 14ZM1 15L1 20L6 20L6 15ZM2 16L2 19L5 19L5 16Z" fill="#000000"/></g></g></svg>
