<?xml version="1.0" encoding="UTF-8"?>
<svg xmlns="http://www.w3.org/2000/svg" version="1.1" width="300" height="300" viewBox="0 0 300 300"><rect x="0" y="0" width="300" height="300" fill="#ffffff"/><g transform="scale(13.043)"><g transform="translate(1,1)"><path fill-rule="evenodd" d="M8 0L8 2L10 2L10 3L11 3L11 4L10 4L10 5L9 5L9 3L8 3L8 7L9 7L9 6L10 6L10 9L12 9L12 10L11 10L11 11L10 11L10 10L9 10L9 11L7 11L7 10L6 10L6 9L7 9L7 8L6 8L6 9L4 9L4 8L3 8L3 9L2 9L2 10L0 10L0 12L1 12L1 13L3 13L3 11L4 11L4 10L5 10L5 12L6 12L6 13L7 13L7 12L8 12L8 14L9 14L9 12L10 12L10 13L11 13L11 14L10 14L10 15L9 15L9 17L8 17L8 18L9 18L9 20L10 20L10 18L9 18L9 17L10 17L10 16L11 16L11 21L12 21L12 20L13 20L13 21L14 21L14 20L15 20L15 18L14 18L14 20L13 20L13 16L14 16L14 17L17 17L17 18L16 18L16 21L19 21L19 20L20 20L20 19L21 19L21 16L18 16L18 15L19 15L19 13L20 13L20 15L21 15L21 13L20 13L20 9L21 9L21 8L19 8L19 9L18 9L18 8L15 8L15 9L13 9L13 8L11 8L11 6L10 6L10 5L12 5L12 7L13 7L13 5L12 5L12 3L11 3L11 2L13 2L13 1L12 1L12 0L11 0L11 1L10 1L10 0ZM15 9L15 10L13 10L13 11L14 11L14 12L12 12L12 11L11 11L11 12L12 12L12 13L16 13L16 12L17 12L17 14L16 14L16 15L17 15L17 14L18 14L18 13L19 13L19 12L18 12L18 11L19 11L19 10L18 10L18 9ZM1 11L1 12L2 12L2 11ZM6 11L6 12L7 12L7 11ZM11 14L11 15L13 15L13 14ZM14 14L14 15L15 15L15 14ZM17 16L17 17L18 17L18 16ZM17 18L17 20L18 20L18 19L20 19L20 18ZM0 0L0 7L7 7L7 0ZM1 1L1 6L6 6L6 1ZM2 2L2 5L5 5L5 2ZM14 0L14 7L21 7L21 0ZM15 1L15 6L20 6L20 1ZM16 2L16 5L19 5L19 2ZM0 14L0 21L7 21L7 14ZM1 15L1 20L6 20L6 15ZM2 16L2 19L5 19L5 16Z" fill="#000000"/></g></g></svg>
