<?xml version="1.0" encoding="UTF-8"?>
<svg xmlns="http://www.w3.org/2000/svg" version="1.1" width="300" height="300" viewBox="0 0 300 300"><rect x="0" y="0" width="300" height="300" fill="#ffffff"/><g transform="scale(13.043)"><g transform="translate(1,1)"><path fill-rule="evenodd" d="M10 0L10 1L9 1L9 2L8 2L8 4L9 4L9 2L10 2L10 3L11 3L11 1L12 1L12 2L13 2L13 1L12 1L12 0ZM12 3L12 7L13 7L13 3ZM10 4L10 7L9 7L9 6L8 6L8 7L9 7L9 8L11 8L11 4ZM3 8L3 9L1 9L1 11L0 11L0 13L1 13L1 12L2 12L2 13L8 13L8 15L10 15L10 16L8 16L8 18L9 18L9 20L11 20L11 19L12 19L12 20L13 20L13 21L17 21L17 20L18 20L18 21L20 21L20 20L21 20L21 18L19 18L19 19L20 19L20 20L18 20L18 18L17 18L17 17L19 17L19 16L20 16L20 17L21 17L21 14L20 14L20 12L21 12L21 11L20 11L20 12L19 12L19 11L18 11L18 10L17 10L17 9L19 9L19 10L20 10L20 9L19 9L19 8L17 8L17 9L15 9L15 13L14 13L14 12L12 12L12 11L11 11L11 10L13 10L13 8L12 8L12 9L11 9L11 10L10 10L10 9L8 9L8 8L6 8L6 9L5 9L5 8ZM3 9L3 10L2 10L2 12L3 12L3 10L4 10L4 12L5 12L5 10L4 10L4 9ZM6 9L6 10L7 10L7 9ZM9 10L9 11L6 11L6 12L8 12L8 13L10 13L10 15L11 15L11 16L10 16L10 18L12 18L12 19L13 19L13 20L15 20L15 19L14 19L14 18L13 18L13 16L14 16L14 17L16 17L16 16L18 16L18 12L17 12L17 13L15 13L15 15L13 15L13 16L12 16L12 15L11 15L11 14L12 14L12 13L11 13L11 11L10 11L10 10ZM16 10L16 11L17 11L17 10ZM13 13L13 14L14 14L14 13ZM11 16L11 17L12 17L12 16ZM16 19L16 20L17 20L17 19ZM0 0L0 7L7 7L7 0ZM1 1L1 6L6 6L6 1ZM2 2L2 5L5 5L5 2ZM14 0L14 7L21 7L21 0ZM15 1L15 6L20 6L20 1ZM16 2L16 5L19 5L19 2ZM0 14L0 21L7 21L7 14ZM1 15L1 20L6 20L6 15ZM2 16L2 19L5 19L5 16Z" fill="#000000"/></g></g></svg>
